<svg width="145" height="185" xmlns="http://www.w3.org/2000/svg">
 <title>Beer Mug</title>

 <g>
  <title>background</title>
  <rect x="-1" y="-1" width="147" height="187" id="canvas_background" fill="none"/>
 </g>
 <g>
  <title>Layer 1</title>
  <g id="Layer_1" stroke="null">
   <g id="svg_99" stroke="null"/>
   <g id="svg_120" stroke="null">
    <path fill="#EFF3FA" d="m111.47146,142.45585c-0.69163,0 -1.4076,-0.01677 -2.12389,-0.05066l-1.20429,-0.05735l-0.16683,-13.6568l1.46864,0.20391c0.00102,0 0.44075,0.05704 1.158,0.05704c3.73541,0 12.57043,-1.44607 14.03288,-14.81751c0.28376,-12.62218 -0.18256,-32.72456 -2.63094,-36.53125l-0.09982,-0.15524l-0.05321,-0.17773c-0.01214,-0.04258 -1.4411,-4.56992 -4.69042,-4.56992c-2.12255,0 -4.80181,1.84714 -7.74801,5.34088l-0.2821,0.33472l-4.02833,0.86758l-1.43585,-19.92402l0.92943,-0.32831c0.19733,-0.0694 4.88714,-1.70226 10.63801,-1.70226c7.15064,0 19.35945,2.75431 20.77723,21.20037c0.10543,1.1982 2.62011,29.76704 1.77802,39.5481c-0.00362,0.97053 -0.21641,10.35687 -6.92923,17.27095c-4.60503,4.74228 -11.12903,7.1475 -19.3893,7.1475l0.00001,0z" id="svg_121" stroke="null"/>
    <path fill="#8BACDB" d="m115.23442,58.5945c8.08659,0 18.22577,3.39617 19.50101,19.9964c0,0 2.6319,29.66948 1.77473,39.38813c0,0 0.1964,23.17061 -25.0387,23.17061c-0.67031,0 -1.35834,-0.01643 -2.06445,-0.04961l-0.13331,-10.91091c0,0 0.5005,0.06943 1.32939,0.06943c3.66187,0 13.73271,-1.35451 15.31073,-16.03685c0,0 0.72289,-31.79733 -2.83911,-37.33542c0,0 -1.65555,-5.49149 -5.91349,-5.49214c-2.181,0 -5.04347,1.43968 -8.71712,5.79462l-2.17277,0.46783l-1.25686,-17.43088c0.00099,-0.00033 4.61918,-1.63053 10.21996,-1.63119m0.00166,-2.61278l0,2.61278l-0.00101,-2.61278c-5.96333,0.00066 -10.8505,1.7016 -11.05676,1.77504l-1.85981,0.65632l0.14484,2.00441l1.25686,17.43088l0.21444,2.98139l2.86479,-0.6171l2.1731,-0.4675l0.84532,-0.18208l0.56392,-0.66938c3.58728,-4.25301 5.78668,-4.88718 6.77882,-4.88718c2.26311,0 3.46119,3.62455 3.47265,3.66111l0.10773,0.35479l0.19574,0.29783c0.42892,0.66736 1.8664,4.0387 2.33636,19.39174c0.24201,7.92018 0.10571,15.33929 0.08469,16.33598c-1.31529,11.82845 -8.54993,13.59812 -12.75468,13.59812c-0.61805,0 -0.99505,-0.04664 -0.99998,-0.04761l-2.939,-0.40751l0.05087,3.03098l0.13302,10.91087l0.03023,2.46255l2.40894,0.11437c0.73663,0.03521 1.47096,0.05299 2.18294,0.05299c8.61404,0 15.44311,-2.53498 20.29841,-7.53583c6.93089,-7.13877 7.28492,-16.78437 7.299,-18.12715c0.83453,-9.90814 -1.65715,-38.30089 -1.78395,-39.72854c-1.50051,-19.48094 -14.4568,-22.3895 -22.04749,-22.3895l0,0l0,0l0.00001,0.00001z" id="svg_122" stroke="null"/>
    <path fill="#EFF3FA" d="m62.03832,163.44223c-9.71616,0 -33.29578,-1.19184 -42.38859,-12.23321c-0.19379,-0.23643 -0.3005,-0.53521 -0.29955,-0.84409l0.17933,-85.21219c0.00132,-0.6516 0.47262,-1.2029 1.10511,-1.29149l84.45405,-11.8274c0.0575,-0.00808 0.11564,-0.0124 0.17309,-0.0124c0.29689,0 0.58723,0.10561 0.81874,0.30216c0.27622,0.23476 0.44335,0.57783 0.45917,0.94373l4.26805,94.62602c0.01279,0.30517 -0.07882,0.60696 -0.25913,0.85049c-3.10055,4.16883 -13.68013,13.94113 -44.87897,14.6303l0,0c0.00986,0.00134 -1.36193,0.06808 -3.63129,0.06808l-0.00001,0z" id="svg_123" stroke="null"/>
    <path fill="#8BACDB" d="m105.26178,53.32903l4.26742,94.62605c-2.82566,3.80094 -13.00788,13.43243 -43.88748,14.11451c-0.06732,0.00337 -1.40792,0.06608 -3.60371,0.06608c-9.04491,0 -32.59855,-1.06881 -41.4086,-11.76772l0.17932,-85.21186l84.45305,-11.82706m0,-2.61242c-0.11596,0 -0.23189,0.00802 -0.34747,0.02415l-84.45339,11.82704c-1.26537,0.17742 -2.20859,1.27908 -2.21121,2.58331l-0.179,85.21181c-0.00132,0.61706 0.21184,1.21503 0.60035,1.68688c4.18665,5.08403 11.61835,8.71093 22.08891,10.7801c8.45078,1.66973 16.95903,1.91888 21.2784,1.91888c2.08574,0 3.43584,-0.05631 3.68841,-0.06737c31.73381,-0.70694 42.62737,-10.82643 45.8396,-15.14545c0.36258,-0.48727 0.54551,-1.08927 0.51794,-1.69996l-4.26681,-94.62671c-0.03317,-0.73339 -0.36617,-1.41819 -0.91824,-1.88737c-0.46209,-0.39407 -1.04338,-0.6053 -1.63748,-0.6053l0,0l-0.00001,-0.00001z" id="svg_124" stroke="null"/>
    <path fill="#EFF3FA" d="m64.4791,182.21997c-9.56706,0 -33.27669,-0.96149 -46.77822,-9.86962c-0.09786,-0.06335 -0.18587,-0.14153 -0.26271,-0.23003c-0.37901,-0.4363 -3.5686,-4.69234 0.91562,-19.65939c0.16059,-0.53623 0.63843,-0.90882 1.18821,-0.92391c0,0 0.38619,-0.01039 0.39769,-0.01039c0.34417,0 0.67459,0.1415 0.91561,0.39338c1.59153,1.66605 3.62344,3.17248 6.03893,4.478c11.06759,5.98284 27.92122,6.62939 34.65312,6.62939c2.39743,0 3.93769,-0.07749 4.10583,-0.08622c28.56758,-0.63144 39.66409,-8.65622 43.74038,-13.38311c0.24403,-0.28404 0.59542,-0.4437 0.96032,-0.4437c0.05516,0 0.11166,0.00404 0.16745,0.01074c0.42236,0.05704 0.78952,0.32565 0.97872,0.7167c0.66701,1.37598 6.36172,13.63297 1.00593,20.05341c-0.02826,0.03416 -0.05845,0.0667 -0.09064,0.09823c-0.46536,0.45409 -11.78487,11.13227 -44.6031,12.17924c-0.04073,0.00133 -1.25193,0.04863 -3.33147,0.04863c-0.00064,-0.00135 -0.00132,-0.00135 -0.00165,-0.00135l0,0l-0.00002,0z" id="svg_125" stroke="null"/>
    <path fill="#8BACDB" d="m110.35353,150.41997c0.55931,1.15396 6.02087,12.82075 1.17869,18.62749c0,0 -11.05449,10.7754 -43.76038,11.81833c0,0 -1.2132,0.04832 -3.2927,0.04832c-8.73389,0 -32.7263,-0.84813 -46.08394,-9.66071c0,0 -3.22179,-3.71107 1.18164,-18.41017l0.3629,-0.01001c1.76979,1.85149 3.93505,3.41054 6.35548,4.7191c11.12444,6.01366 27.58399,6.78066 35.25248,6.78066c2.36129,0 3.88975,-0.07246 4.17119,-0.08719c29.19615,-0.64559 40.54161,-9.07851 44.63464,-13.82582m-0.00133,-2.61247c-0.72973,0 -1.4299,0.31895 -1.91989,0.88632c-1.79938,2.08766 -5.32624,5.12501 -11.91132,7.74346c-7.97886,3.17217 -18.36105,4.9207 -30.85859,5.19638c-0.02494,0.00067 -0.04991,0.00136 -0.07521,0.00268c-0.16485,0.00909 -1.67459,0.08453 -4.04049,0.08453c-6.63663,0 -23.24065,-0.63149 -34.05503,-6.47715c-2.29727,-1.24248 -4.22279,-2.66709 -5.72202,-4.2359c-0.48176,-0.504 -1.14256,-0.78775 -1.83059,-0.78775c-0.02297,0 -0.04662,0.00032 -0.07027,0.00104l-0.36257,0.00969c-1.09855,0.03085 -2.05521,0.77469 -2.37609,1.8475c-4.47566,14.93952 -1.62893,19.78011 -0.64961,20.90789c0.1537,0.17773 0.33106,0.33335 0.52613,0.46245c13.78753,9.09596 37.79146,10.0782 47.47214,10.0782c2.10484,0 3.34032,-0.0483 3.39155,-0.04994c33.28233,-1.06144 44.94696,-12.0716 45.42746,-12.53943c0.06304,-0.06202 0.12413,-0.12707 0.18095,-0.19546c5.76566,-6.91143 0.31825,-19.10604 -0.83254,-21.48037c-0.37834,-0.78072 -1.11234,-1.31696 -1.95833,-1.43133c-0.11134,-0.0161 -0.22369,-0.02281 -0.33566,-0.02281l0,0l0,0l-0.00002,0z" id="svg_126" stroke="null"/>
    <path fill="#FFCD49" d="m102.41142,138.34234c0.06699,4.7879 -3.45525,10.00811 -7.82878,11.60241c-17.53178,6.38925 -35.91287,7.06902 -53.9462,2.68049c-2.14753,-0.52214 -4.3052,-1.052 -6.40642,-1.75023c-4.41653,-1.46617 -8.08687,-6.58442 -8.15518,-11.37332l-0.60826,-42.66766c-0.0673,-4.78856 -0.17996,-12.62557 -0.24763,-17.41546l-0.6082,-42.6673c-0.06799,-4.78926 3.67167,-8.76559 8.31054,-8.83567l21.29875,-0.32365c4.63888,-0.07073 12.23087,-0.18577 16.86938,-0.25618l21.29811,-0.32332c4.64021,-0.07041 6.38244,3.79055 6.45042,8.57947l2.29564,42.66728c0.06699,4.78926 0.60096,12.62628 0.66928,17.41549l0.60856,42.66764l-0.00001,0.00001z" id="svg_127" stroke="null"/>
    <path fill="#F89939" d="m95.73937,122.49635c0.29362,4.77246 0.27782,9.00572 -3.18464,9.88802c-3.66808,0.93466 -4.05266,-3.68558 -4.15348,-8.48624c-0.26768,-12.68491 -0.15995,-25.40943 -0.18028,-38.10574c-0.0069,-4.23657 -0.01777,-11.16773 -0.02466,-15.40402l-0.05844,-37.73987c-0.00658,-4.23525 0.35567,-7.75213 0.80461,-7.81485l2.06313,-0.28639c0.4499,-0.06136 1.18458,-0.16329 1.63514,-0.22634l2.06279,-0.28541c0.44928,-0.06272 0.61779,3.35292 0.62469,7.58813l0.22197,37.73956c0.00689,4.23654 0.0588,11.1674 0.0647,15.40397c0.01183,7.71932 -0.00591,15.43927 0.02334,23.15853c0.0177,4.82346 -0.203,9.70157 0.09524,14.49619c0.00192,0.02382 0.00356,0.04896 0.0059,0.07447l-0.00001,-0.00001z" id="svg_128" stroke="null"/>
    <path fill="#FFFFFF" d="m94.8372,62.12683c0,0 13.27386,12.16377 18.37945,-10.42629c0,0 8.16837,-3.47602 2.72225,-11.12249c0,0 2.72252,-9.03556 -5.10523,-7.99292c0,0 1.02104,-11.81635 -10.21079,-9.73141c0,0 -3.74359,-6.95164 -10.89091,-1.3904c0,0 1.48906,-6.84369 -1.7015,-10.5524c0,0 -12.59376,-13.08102 -26.20727,0.82129c0,0 -7.14761,-5.56126 -12.93333,2.08559c0,0 -5.78568,-4.17085 -11.23181,2.78046c0,0 -5.78571,-9.73244 -12.25289,0c0,0 -15.31598,-2.0856 -13.27388,13.55449c0,0 -11.91196,6.60254 -5.78536,15.29201c0,0 -7.43598,5.52605 -2.0421,11.46927c0,0 -4.54101,6.68502 4.08451,12.16411c0,0 1.36129,7.29839 6.80705,5.21312c0,0 -1.70118,11.12151 5.44547,12.86c0,0 1.36129,23.63268 15.65656,21.54747c0,0 10.89091,0.34708 12.93333,-14.94457c0,0 12.59346,-7.64618 6.46685,-18.07314c0,0 11.90374,3.95886 15.98825,-7.51036c0,0 8.25243,5.38484 11.65482,-0.87092c-0.00096,-0.00033 10.47482,6.29569 11.49653,-5.1729l0,-0.00001z" id="svg_129" stroke="null"/>
    <path fill="#8BACDB" d="m34.55256,110.13504c-12.2913,0 -14.70876,-17.65661 -15.11699,-21.98806c-5.46252,-1.99612 -5.83887,-8.83805 -5.67664,-12.19163c-0.14156,0.01072 -0.28211,0.01637 -0.42038,0.01637c-4.10519,0 -5.65005,-4.4572 -6.07569,-6.07835c-2.9482,-1.98464 -4.71672,-4.34926 -5.26022,-7.03312c-0.50805,-2.51048 0.21312,-4.64237 0.75337,-5.78926c-1.28476,-1.68621 -1.84309,-3.50048 -1.66144,-5.40397c0.28243,-2.95854 2.32781,-5.30842 3.56262,-6.47645c-1.25618,-2.19022 -1.63482,-4.44652 -1.12581,-6.72293c1.02959,-4.59542 5.43891,-7.84771 7.23337,-9.00435c-0.41312,-4.32446 0.44468,-7.75852 2.55408,-10.21939c3.01816,-3.51925 7.78215,-4.04509 10.35395,-4.04509c0.43289,0 0.80957,0.01441 1.11005,0.0332c2.04405,-2.8311 4.28583,-4.26608 6.67178,-4.26608c2.85624,0 5.08355,2.0953 6.29311,3.56249c2.57672,-2.65737 5.1617,-3.25865 6.97092,-3.25865c1.63158,0 2.98958,0.47418 3.86053,0.88633c2.12521,-2.41461 4.69371,-3.68357 7.48361,-3.68357c2.42534,0 4.46775,0.94536 5.59556,1.60334c4.20041,-4.01524 8.73192,-6.04954 13.48376,-6.04954c7.96112,0 13.56488,5.72459 13.80004,5.96841c0.01672,0.01743 0.03251,0.03553 0.04827,0.05396c2.21121,2.56954 2.47394,6.31347 2.33763,8.87192c1.25229,-0.61168 2.48582,-0.91989 3.68779,-0.91989c3.24969,0 5.31675,2.20835 6.21362,3.43304c3.61555,-0.48724 6.41461,0.36491 8.32698,2.49807c2.03419,2.26842 2.48874,5.4201 2.5659,7.26322c2.44932,0.02951 3.75643,1.12615 4.42344,2.04871c1.64768,2.2784 1.113,5.65451 0.78099,7.08477c1.61253,2.46687 2.12351,4.83051 1.51829,7.03381c-0.79973,2.91027 -3.34034,4.59442 -4.52463,5.23964c-2.78263,11.63492 -7.91675,14.10115 -11.76744,14.10115c-2.73997,0 -5.20903,-1.23476 -6.78671,-2.25965c-1.18951,5.06393 -4.5929,5.88722 -6.67571,5.88722c-0.00033,0 -0.00033,0 -0.00033,0c-2.08314,0 -4.11569,-0.77735 -5.31443,-1.33943c-1.32251,1.73247 -3.20237,2.6403 -5.50193,2.6403c-2.31172,0 -4.57978,-0.92322 -5.95485,-1.61575c-2.26113,4.93614 -6.47634,7.63205 -12.01116,7.63205c-0.85943,0 -1.65517,-0.06608 -2.34816,-0.1576c0.79085,2.22544 0.91003,4.48109 0.3537,6.73501c-1.34649,5.45126 -6.26224,9.18915 -7.9033,10.30759c-2.26542,14.93715 -12.70738,15.46636 -14.03058,15.47308c-0.61938,0.0852 -1.23315,0.1291 -1.82696,0.1291l0,-0.00002zm-19.35846,-37.15034c0.28966,0 0.57638,0.10028 0.80758,0.29343c0.35339,0.29345 0.52678,0.75525 0.45618,1.21437c-0.01448,0.09792 -1.4296,9.95038 4.47827,11.38776c0.54846,0.13312 0.94748,0.61809 0.98064,1.19286c0.0115,0.20492 1.32813,20.44946 12.63514,20.44946c0.50446,0 1.03059,-0.03885 1.56359,-0.11704c0.07223,-0.0104 0.14813,-0.01511 0.22069,-0.0124c1.01941,0 9.83311,-0.38768 11.62529,-13.81545c0.05287,-0.39399 0.27915,-0.74278 0.61377,-0.94637c0.05813,-0.0352 5.93943,-3.67921 7.25966,-9.05564c0.58816,-2.39481 0.17239,-4.82479 -1.23584,-7.22192c-0.2749,-0.4672 -0.23645,-1.05978 0.09657,-1.48603c0.33235,-0.42623 0.88968,-0.59626 1.3964,-0.42788c0.01544,0.00534 1.84506,0.59592 4.21622,0.59592c5.02309,0 8.44588,-2.45986 10.17331,-7.31114c0.1327,-0.37225 0.42399,-0.664 0.79218,-0.79111c0.36715,-0.12743 0.77209,-0.07713 1.09886,0.13649c0.0279,0.01845 3.03916,1.94942 5.90128,1.94942c1.79479,0 3.08548,-0.76962 3.9469,-2.3532c0.16785,-0.30786 0.4496,-0.53424 0.782,-0.62647c0.33202,-0.09289 0.68769,-0.04458 0.98524,0.13484c0.02428,0.01408 2.61746,1.54367 5.10291,1.54367c0.00362,0 0.00721,0 0.01082,0c0.99214,0 3.95413,-0.02048 4.46088,-5.70852c0.04404,-0.49226 0.35634,-0.9162 0.80628,-1.09726c0.45025,-0.18145 0.96254,-0.08686 1.32219,0.24314c0.03088,0.02815 3.27135,2.93675 6.8629,2.93675c5.41294,0 8.10793,-6.89803 9.41564,-12.68426c0.09298,-0.41052 0.37344,-0.74989 0.75474,-0.91221c0.02561,-0.01142 2.9741,-1.31527 3.66277,-3.85125c0.4181,-1.54465 -0.08043,-3.32706 -1.48309,-5.29597c-0.23714,-0.33266 -0.30709,-0.75992 -0.18786,-1.15231c0.29786,-1.0017 0.83877,-3.93006 -0.22955,-5.40191c-0.61085,-0.8411 -1.77739,-1.14023 -3.48746,-0.9125c-0.38622,0.05264 -0.77175,-0.07818 -1.05127,-0.35279c-0.27979,-0.27403 -0.42298,-0.66301 -0.38883,-1.05708c0.0036,-0.04024 0.32676,-4.31569 -1.89527,-6.78229c-1.0749,-1.19456 -2.56169,-1.77471 -4.54298,-1.77471c-0.69887,0 -1.46245,0.0761 -2.26869,0.22568c-0.54189,0.09997 -1.08474,-0.16329 -1.34947,-0.65561c-0.06175,-0.11167 -1.61448,-2.86999 -4.48517,-2.86999c-1.38166,0 -2.89924,0.63583 -4.50981,1.8891c-0.42729,0.33232 -1.01285,0.35647 -1.46504,0.06164c-0.45259,-0.2961 -0.67556,-0.84809 -0.55899,-1.38401c0.01183,-0.06034 1.29462,-6.20646 -1.38722,-9.37492c-0.36946,-0.36955 -5.31772,-5.16653 -11.95333,-5.16653c-4.32886,0 -8.50534,2.02388 -12.41577,6.01597c-0.45322,0.46247 -1.17013,0.51175 -1.67952,0.11573c-0.01872,-0.01479 -2.22959,-1.68556 -4.98405,-1.68556c-2.31563,0 -4.38891,1.18817 -6.1614,3.53003c-0.41907,0.55363 -1.19083,0.67235 -1.75012,0.26894c-0.00786,-0.00572 -1.4496,-1.00172 -3.4326,-1.00172c-2.1869,0 -4.22703,1.18848 -6.06222,3.531c-0.26107,0.33298 -0.66538,0.51577 -1.08179,0.48756c-0.4171,-0.02746 -0.79378,-0.26052 -1.01118,-0.62577c-0.02005,-0.03455 -2.25262,-3.6963 -5.10788,-3.6963c-1.65848,0 -3.338,1.2623 -4.99189,3.75197c-0.2729,0.40947 -0.74781,0.62647 -1.22796,0.56142c-0.00393,-0.00032 -0.62167,-0.08081 -1.56295,-0.08081c-2.13794,0 -6.07665,0.41011 -8.42844,3.15337c-1.74062,2.03024 -2.36133,5.06291 -1.84537,9.01476c0.07027,0.53694 -0.19179,1.06207 -0.65779,1.32063c-0.05521,0.03119 -5.70856,3.22815 -6.71677,7.75685c-0.42102,1.89045 0.02366,3.72951 1.35896,5.62396c0.41152,0.58316 0.28376,1.39642 -0.28471,1.81963c-0.03023,0.02181 -3.17744,2.41563 -3.45887,5.42947c-0.13237,1.42228 0.39144,2.761 1.60199,4.09542c0.40856,0.45005 0.45518,1.12847 0.11297,1.63216c-0.00986,0.0151 -1.37837,2.12014 -0.83908,4.70642c0.43254,2.07622 1.9636,3.9616 4.54823,5.60384c0.30311,0.19284 0.51363,0.50639 0.58094,0.86454c0.0079,0.04224 0.89822,4.52602 3.69371,4.52602c0.42824,0 0.90183,-0.09759 1.40659,-0.29078c0.14452,-0.05734 0.29723,-0.08452 0.44796,-0.08452l0,0l-0.00002,0.00001z" id="svg_130" stroke="null"/>
    <path fill="#F89939" d="m52.21146,139.13346c1.9094,0 1.9094,-3.02424 0,-3.02424c-1.91039,0.00033 -1.91039,3.02424 0,3.02424l0,0z" id="svg_131" stroke="null"/>
    <path fill="#F89939" d="m60.73977,117.36197c1.90971,0 1.90971,-3.02423 0,-3.02423s-1.90972,3.02423 0,3.02423l0,0z" id="svg_132" stroke="null"/>
    <path fill="#F89939" d="m71.82643,89.49471c1.90939,0 1.90939,-3.02424 0,-3.02424c-1.91007,0 -1.91007,3.02424 0,3.02424l0,0z" id="svg_133" stroke="null"/>
    <path fill="#F89939" d="m40.2716,119.97478c1.90939,0 1.90939,-3.02462 0,-3.02462c-1.91008,0.0004 -1.91008,3.02462 0,3.02462l0,0z" id="svg_134" stroke="null"/>
    <path fill="#F89939" d="m80.35476,138.69786c1.90971,0 1.90971,-3.02424 0,-3.02424s-1.90977,3.02424 0,3.02424l0,0z" id="svg_135" stroke="null"/>
    <path fill="#F89939" d="m74.29612,104.17908c0.1823,-0.59155 0.22202,-1.21231 -0.12971,-1.76334c-0.33665,-0.52648 -0.85686,-0.87124 -1.48706,-0.87124c-0.63057,0 -1.1511,0.34442 -1.48741,0.87124c-0.35138,0.55103 -0.31102,1.17078 -0.1284,1.76334c0.22462,0.73007 0.84963,1.2563 1.61582,1.2563s1.39081,-0.52622 1.61677,-1.2563l0,0l0,0l-0.00001,0z" id="svg_136" stroke="null"/>
    <path fill="#F89939" d="m54.55636,104.31123c0.15073,0.13582 0.30083,0.27262 0.45157,0.40945c0.4197,0.38195 0.89233,0.6211 1.46768,0.6211c0.54779,0 1.07951,-0.22572 1.46706,-0.6211c0.38783,-0.3957 0.6082,-0.93901 0.6082,-1.49805c0,-0.58753 -0.2338,-1.0701 -0.6082,-1.49871c-0.13366,-0.15395 -0.26768,-0.3072 -0.40103,-0.46112c-0.76551,-0.87793 -2.20759,-0.7941 -2.98528,0c-0.77766,0.79412 -0.85945,2.26669 0,3.04844l0,0l0,-0.00001z" id="svg_137" stroke="null"/>
    <path fill="#F89939" d="m62.87185,133.47293c1.90973,0 1.90973,-3.02424 0,-3.02424c-1.91038,0.00033 -1.91007,3.02424 0,3.02424l0,0z" id="svg_138" stroke="null"/>
    <path fill="#F89939" d="m74.04421,123.95986c-0.14847,-0.41082 -0.37047,-0.96752 -0.79706,-1.16272c-0.3961,-0.18105 -0.6982,-0.23842 -1.1186,-0.14216c-0.31002,0.07009 -0.58426,0.30149 -0.80725,0.51645c-0.50181,0.48224 -0.52444,1.42424 0,1.9028c0.53925,0.4923 1.10347,0.65224 1.81318,0.52481c0.31759,-0.05695 0.67492,-0.30046 0.90283,-0.52481c-0.31102,0.13147 -0.62135,0.26326 -0.93237,0.39441c0.14253,0 0.28472,0 0.42661,0c0.58623,0 1.11529,-0.41119 1.27063,-0.98833c0.18261,-0.67708 -0.21805,-1.49936 -0.92021,-1.655c0.28474,0.0634 0.18622,0.09761 0.06829,0.04527c-0.13825,-0.0617 -0.28572,-0.13281 -0.43383,-0.18039c0.33896,0.34607 0.67718,0.69148 1.01616,1.03758c-0.13928,-0.5161 -0.42038,-0.79481 -0.82597,-1.10535c0.11557,0.09088 0.22987,0.18142 0.34448,0.272c-0.02005,-0.01745 -0.04005,-0.03457 -0.06141,-0.05233c-0.23151,-0.2344 -0.50414,-0.39704 -0.81876,-0.48663c-0.52673,-0.14856 -0.94813,-0.01912 -1.42956,0.19048c-0.18326,0.08018 -0.34485,0.26095 -0.50313,0.39877c-0.31364,0.27533 -0.4621,0.65629 -0.5961,1.04027c-0.24795,0.70996 0.04041,1.58525 0.54287,2.09803c0.69623,0.71159 1.7091,0.78571 2.55868,0.33667c0.03649,-0.01779 0.07262,-0.03824 0.10647,-0.06137c-0.36258,0.09992 -0.72452,0.20089 -1.08774,0.30049c1.01086,0.03354 1.85619,-0.66737 2.27198,-1.56408c-0.46405,0.36446 -0.92712,0.72836 -1.39085,1.09254c0.65552,-0.23205 1.20791,-0.57982 1.56524,-1.20125c0.14612,-0.25551 0.20393,-0.47987 0.2913,-0.73171c-0.08308,0.20256 -0.16749,0.40546 -0.25057,0.608c0.00098,-0.0027 0.00166,-0.00537 0.00328,-0.00806c-0.2979,0.30449 -0.59609,0.60832 -0.89461,0.91352c0.00098,0 0.00098,-0.00034 0.00196,-0.00065c-1.25026,-0.73344 -2.50123,-1.46519 -3.75151,-2.19829c0.00265,0.03824 -0.0069,0.07982 -0.01146,0.11806c-0.07425,0.63415 0.31229,1.37864 0.73465,1.8099c0.46832,0.47857 1.11036,0.74954 1.77212,0.74954s1.30548,-0.27127 1.77282,-0.74954c0.42134,-0.4306 0.80888,-1.17679 0.73368,-1.8099c-0.03088,-0.26462 -0.02695,-0.54262 -0.10512,-0.79517c-0.26306,-0.85547 -0.87981,-1.5356 -1.74125,-1.7777c-0.4417,-0.12109 -0.88343,-0.12109 -1.32482,0c-0.42202,0.12072 -0.78952,0.33937 -1.10022,0.65495c-0.54317,0.44067 -0.68405,1.19083 -0.7366,1.84448c-0.06173,0.77332 0.29655,1.41152 0.77538,1.96319c-0.19901,-0.77167 -0.39902,-1.54269 -0.59871,-2.31331c-0.01772,0.12006 -0.04169,0.23743 -0.07553,0.35414c-0.13662,0.46178 -0.18424,0.95978 -0.01935,1.4256c0,-0.3897 0,-0.77969 0,-1.17042c-0.0069,0.0198 -0.01348,0.03824 -0.02037,0.05769c0.07193,-0.17336 0.14352,-0.34674 0.21577,-0.52048c-0.00917,0.02015 -0.01741,0.03959 -0.02562,0.05967c1.28672,0.17208 2.57248,0.34311 3.85921,0.51514c-0.1248,-0.35815 -0.27751,-0.76027 -0.5731,-1.01847c-0.16387,-0.14387 -0.34319,-0.34042 -0.52676,-0.42056c0.28474,0.71297 0.56847,1.42596 0.8529,2.13927c0.00722,-0.03355 0.01412,-0.06707 0.02133,-0.10027c-0.26074,0.34577 -0.5212,0.69183 -0.78194,1.03825c0.40462,-0.31055 0.68637,-0.58952 0.82532,-1.10501c-0.3386,0.34541 -0.6772,0.69153 -1.01616,1.03692c0.14878,-0.0476 0.29559,-0.11872 0.43418,-0.18073c0.1179,-0.051 0.21677,-0.01712 -0.06795,0.04628c0.56782,-0.1261 0.96716,-0.72402 0.96716,-1.29719c0,-0.73375 -0.59902,-1.34577 -1.31761,-1.34577c-0.25518,0 -0.52909,-0.02145 -0.77637,0.04832c-0.23221,0.06471 -0.41316,0.18074 -0.58524,0.34974c-0.13597,0.13347 0.31724,-0.23036 0.14385,-0.11737c-0.17832,0.11603 0.34221,-0.11839 0.11887,-0.05363c0.26439,-0.07548 0.54651,-0.01949 0.75144,0.16699c0,0.63448 0,1.26863 0,1.90218c0.02232,-0.02113 0.04499,-0.04265 0.06731,-0.06408c-0.18722,0.1868 -0.41971,0.28033 -0.69889,0.28138c-0.22234,-0.06138 -0.44398,-0.12211 -0.66569,-0.18379c-0.13265,-0.13783 -0.26668,-0.276 -0.40034,-0.41419c-0.05977,-0.22636 -0.11986,-0.45237 -0.17964,-0.67877c0.01151,0.13048 0.02562,0.05368 0.04302,-0.22768c-0.00722,0.05866 -0.02561,0.11672 -0.04138,0.17339c-0.24927,0.90781 0.44861,1.8327 1.36755,1.8327c0.86407,0 1.69427,-0.93632 1.36915,-1.8327l0,0l-0.00002,-0.00001z" id="svg_139" stroke="null"/>
    <path fill="#F89939" d="m36.72537,130.01207c-0.52678,0.24615 -0.99478,0.89875 -1.11169,1.46352c-0.11792,0.57078 -0.06471,0.92524 0.03087,1.50204c0.10183,0.37125 0.28573,0.69353 0.55176,0.96721c0.40034,0.40878 0.9511,0.64152 1.51728,0.64152c0.38719,-0.00135 0.74844,-0.10096 1.08343,-0.29881c0.43975,-0.26392 0.89624,-0.77599 0.98557,-1.30991c0.01643,-0.09558 0.02889,-0.19182 0.06141,-0.28374c-0.07356,0.17808 -0.14712,0.35684 -0.22102,0.53558c0.00589,-0.01608 0.0138,-0.03015 0.02233,-0.04458c-0.1146,0.15158 -0.22987,0.30283 -0.34448,0.45541c0.00785,-0.0121 0.01771,-0.02178 0.02923,-0.0302c-0.14946,0.1181 -0.29787,0.23512 -0.44765,0.35316c0.00657,-0.00336 0.01183,-0.00671 0.01772,-0.01041c-0.17635,0.07615 -0.35271,0.15263 -0.52841,0.22806c0.01346,-0.00672 0.02762,-0.0104 0.04238,-0.0124c-0.19737,0.02716 -0.39378,0.05401 -0.59016,0.08181c0.00821,-0.00096 0.01675,-0.00202 0.02465,-0.00266c0.61053,-0.05906 1.12713,-0.2096 1.57408,-0.66601c0.56094,-0.57313 0.78295,-1.42865 0.57209,-2.21135c-0.15302,-0.56778 -0.52546,-1.06045 -1.02301,-1.35789c-0.34679,-0.2059 -0.72153,-0.3092 -1.12316,-0.31056c-0.40166,0.00102 -0.77674,0.10497 -1.1232,0.31024l0,0l-0.00002,-0.00003z" id="svg_140" stroke="null"/>
    <path fill="#F89939" d="m82.48681,74.71047c0.28572,0 0.28572,-0.45238 0,-0.45238s-0.28574,0.45238 0,0.45238l0,0z" id="svg_141" stroke="null"/>
    <path fill="#F89939" d="m81.63426,78.17338c1.90939,0 1.90939,-3.02426 0,-3.02426c-1.9104,0 -1.9104,3.02426 0,3.02426l0,0z" id="svg_142" stroke="null"/>
   </g>
  </g>
 </g>
</svg>
